<svg id="Calque_1" data-name="Calque 1" xmlns="http://www.w3.org/2000/svg" viewBox="0 0 278.48 239.1"><defs><style>.cls-1{fill:#070e34;}.cls-2{fill:#e52421;}.cls-3{fill:none;stroke:#e52421;stroke-miterlimit:10;}</style></defs><g id="garage"><rect class="cls-1" x="157.36" y="6.98" width="114.91" height="87.56"/><path class="cls-2" d="M172.87,89.05h-.5a12,12,0,0,0-12-12v-.5A12.52,12.52,0,0,1,172.87,89.05Z"/><rect class="cls-2" x="160.37" y="89.04" width="12.48" height="1.29"/><path class="cls-2" d="M272.28,87.75A64.31,64.31,0,0,1,208,23.51h.5a63.81,63.81,0,0,0,63.74,63.74Z"/><rect class="cls-2" x="208.06" y="22.21" width="64.5" height="1.3"/><rect class="cls-2" x="154.35" y="90.33" width="6.02" height="4.22"/><path class="cls-2" d="M154.39,77h6V10.17H272.27V22.71h.21V87.29h-.21v7.25H160.39v-.65h-6v6.65H278.48V4H154.39V77M272.78,87.29V22.71H278V87.29Z"/><path class="cls-2" d="M277.46,23.21V86.79h-4.18V23.21h4.18m1-1h-6.18V87.79h6.18Z"/><rect class="cls-2" x="274.98" y="22.46" width="1" height="65.33"/></g><g id="chambre1"><rect class="cls-1" x="10.01" y="9.98" width="63.26" height="109.72"/><rect class="cls-2" x="37.13" width="6.02" height="3.97"/><path class="cls-2" d="M9,26.51v29H5v-29H9m1-1H4v31h6Z"/><rect class="cls-2" x="6.51" y="25.55" width="1" height="31"/><polygon class="cls-2" points="4 26.01 10.01 26.01 10.01 9.98 70.27 9.98 70.27 3.98 4 3.98 4 26.01"/><rect class="cls-2" x="3.98" y="55.86" width="6" height="65.46"/><rect class="cls-2" y="73.39" width="3.97" height="6.02"/><rect class="cls-2" x="70.26" y="117" width="6.02" height="3.97"/><path class="cls-2" d="M58.15,115.72h-.3a12.43,12.43,0,0,1,12.41-12.41v.3A12.12,12.12,0,0,0,58.15,115.72Z"/><rect class="cls-2" x="57.78" y="115.72" width="12.48" height="1.29"/></g><g id="cuisine"><rect class="cls-1" x="102.6" y="10" width="54.76" height="90.29"/><rect class="cls-2" x="130.88" y="94.61" width="23.47" height="6"/><rect class="cls-2" x="141.07" y="3.98" width="13.32" height="6"/><rect class="cls-2" x="102.61" y="3.98" width="11.6" height="6"/><path class="cls-2" d="M143.14,6.48h-1.57V4H113.71V6.48h-1.57v1h1.57V10h27.86V7.48h1.57ZM114.71,5h25.86V6.48H114.71Zm25.86,4H114.71V7.48h25.86Z"/></g><g id="wc1"><rect class="cls-1" x="76.28" y="56.75" width="20.33" height="43.86"/><polygon class="cls-2" points="70.27 50.73 70.27 103.67 80.94 103.67 80.94 97.67 76.27 97.67 76.27 56.73 96.6 56.73 96.6 97.41 96.61 97.41 96.61 103.67 102.6 103.67 102.6 50.73 70.27 50.73"/></g><g id="celier"><rect class="cls-1" x="76.27" y="10" width="20.34" height="40.75"/><path class="cls-2" d="M70.27,4V56.75h32.34V4ZM96.61,50.75H76.27V10H96.61ZM102.11,25h-5V9.44h5Z"/><path class="cls-2" d="M101.61,9.94V24.53h-4V9.94h4m1-1h-6V25.53h6Z"/><rect class="cls-2" x="99.11" y="9.71" width="1" height="15.82"/></g><g id="sdb1"><rect class="cls-1" x="10.54" y="125.7" width="62.73" height="31.97"/><polygon class="cls-2" points="70.24 157.67 70.24 157.67 10.54 157.67 10.54 125.7 70.24 125.7 70.24 140.81 76.24 140.81 76.24 119.7 4.54 119.7 4.54 163.67 76.24 163.67 76.24 157.67 70.24 157.67"/><path class="cls-2" d="M58.15,152.82h-.3a12.42,12.42,0,0,1,12.41-12.4v.3A12.12,12.12,0,0,0,58.15,152.82Z"/><rect class="cls-2" x="57.78" y="152.82" width="12.48" height="1.29"/><rect class="cls-2" x="70.26" y="154.11" width="6.02" height="4.22"/></g><g id="bureau"><rect class="cls-1" x="10.81" y="164" width="62.46" height="47.77"/><rect class="cls-2" y="172.6" width="3.97" height="6.02"/><polygon class="cls-2" points="70.24 212.08 54.75 212.08 54.75 218.08 76.24 218.08 76.24 181.5 70.24 181.5 70.24 212.08"/><polygon class="cls-2" points="4.81 158 4.81 218.08 27.89 218.08 27.89 212.08 10.81 212.08 10.81 164 70.24 164 70.24 164.64 76.24 164.64 76.24 158 4.81 158"/><path class="cls-2" d="M70.26,181.89a12.42,12.42,0,0,1-12.41-12.4h.3a12.12,12.12,0,0,0,12.11,12.1Z"/><rect class="cls-2" x="57.78" y="168.2" width="12.48" height="1.29"/><rect class="cls-2" x="70.26" y="163.98" width="6.02" height="4.22"/><path class="cls-2" d="M54.25,213v4.27H28.4V213H54.25m1-1H27.4v6.27H55.25Z"/><line class="cls-3" x1="27.42" y1="215.15" x2="55.25" y2="215.15"/><polygon class="cls-2" points="27.89 212.3 10.01 212.3 10.01 157.98 4 157.98 4 218.22 27.89 218.3 27.89 212.3"/><rect class="cls-2" x="54.75" y="212.3" width="26.49" height="6"/></g><g id="salon"><rect class="cls-1" x="73.27" y="100.29" width="198.01" height="112.71"/><rect class="cls-2" x="106.41" y="212.29" width="6.99" height="5.99"/><path class="cls-2" d="M81.26,212.29H81a23.08,23.08,0,0,1,23-23v.3A22.77,22.77,0,0,0,81.26,212.29Z"/><rect class="cls-2" x="104.01" y="189.11" width="2.4" height="23.18"/><rect class="cls-2" x="80.07" y="218" width="27.26" height="0.3"/><path class="cls-2" d="M106.56,225.23H81V218h25.6Zm-25.3-.3h25v-6.64h-25Z"/><path class="cls-2" d="M106.56,232.17H81v-7.24h25.6Zm-25.3-.3h25v-6.64h-25Z"/><path class="cls-2" d="M106.56,239.1H81v-7.23h25.6Zm-25.3-.3h25v-6.63h-25Z"/><rect class="cls-2" x="112.45" y="152.62" width="6" height="63.35"/><path class="cls-2" d="M118.08,212.67v-.15l.12-28.64,16.27.11v12.3H205.6v16.27h-.15Zm.41-28.49-.11,28.19,86.92-.11V196.59H134.17v-12.3Z"/><rect class="cls-2" x="118.39" y="190.11" width="15.85" height="0.3"/><rect class="cls-2" x="118.23" y="196.28" width="16.12" height="0.3"/><rect class="cls-2" x="132.64" y="204.29" width="16.17" height="0.3" transform="translate(-64.18 344.49) rotate(-89.81)"/><rect class="cls-2" x="139.2" y="204.44" width="16.17" height="0.3" transform="translate(-57.79 351.2) rotate(-89.81)"/><rect class="cls-2" x="145.58" y="204.35" width="16.17" height="0.3" transform="translate(-51.34 357.49) rotate(-89.81)"/><rect class="cls-2" x="152.14" y="204.39" width="16.17" height="0.3" transform="translate(-44.85 364.09) rotate(-89.81)"/><rect class="cls-2" x="158.61" y="204.39" width="16.17" height="0.3" transform="translate(-38.4 370.56) rotate(-89.81)"/><rect class="cls-2" x="165.03" y="204.3" width="16.17" height="0.3" transform="translate(-31.91 376.89) rotate(-89.81)"/><rect class="cls-2" x="171.5" y="204.34" width="16.17" height="0.3" transform="translate(-25.5 383.4) rotate(-89.81)"/><rect class="cls-2" x="178.01" y="204.3" width="16.17" height="0.3" transform="translate(-18.97 389.87) rotate(-89.81)"/><rect class="cls-2" x="184.43" y="204.35" width="16.17" height="0.3" transform="translate(-12.62 396.34) rotate(-89.81)"/><rect class="cls-2" x="190.94" y="204.34" width="16.17" height="0.3" transform="translate(-6.12 402.84) rotate(-89.81)"/><polygon class="cls-2" points="134.42 212.61 134.12 212.61 134.17 196.61 118.39 204.49 118.25 204.22 134.47 196.13 134.42 212.61"/><rect class="cls-2" x="121.31" y="204.29" width="17.95" height="0.3" transform="translate(-110.91 228.84) rotate(-63.27)"/><rect class="cls-2" x="150.62" y="218.31" width="6.02" height="3.97"/><path class="cls-2" d="M272.48,211.77v.53H113.06v6H278.48v-6.53Zm-.7,6H206.49V212.5h65.29Z"/><path class="cls-2" d="M277.46,101.22V211.27h-4.18v-110h4.18M272.28,121v91.29h6.18v-112h-6.18V121"/><polyline class="cls-3" points="134.24 97.61 274.98 97.61 275.48 100.64 275.48 212.27"/><path class="cls-2" d="M271.28,213v4.27H207V213h64.29m1-1H206v6.27h66.29Z"/><line class="cls-3" x1="206.05" y1="215.15" x2="272.28" y2="215.15"/></g></svg>